# xmcd
#
# Track frame offsets: 
#        150
#        21243
#        41827
#        63173
#        86458
#        105621
#        125215
#        149534
#        168040
#        197295
#
# Disc length: 2889 seconds
#
# Revision: 0
# Processed by: cddbd v1.5.2PL0 Copyright (c) Steve Scherf et al.
# Submitted via: ExactAudioCopy v0.95b4
#
DISCID=830b470a
DTITLE=Bebe and Cece Winans - The Best Of Bebe and Cece Winans
DYEAR=2004
DGENRE=R&B
TTITLE0=I.O.U. Me
TTITLE1=Love Said Not So
TTITLE2=Heaven
TTITLE3=Meantime
TTITLE4=Lost Without You
TTITLE5=I'll Take You There
TTITLE6=Addictive Love
TTITLE7=It's O.K.
TTITLE8=Count It All Joy
TTITLE9=If Anything Ever Happened To You
EXTD=
EXTT0=
EXTT1=
EXTT2=
EXTT3=
EXTT4=
EXTT5=
EXTT6=
EXTT7=
EXTT8=
EXTT9=
PLAYORDER=
